<svg xmlns="http://www.w3.org/2000/svg" viewBox="0 0 500 500"><g id="freepik--background-simple--inject-16"><path d="M411.58,138.84a90.09,90.09,0,0,1,6,11.57C438.68,199.43,430,259.13,400,303.5c-31.53,46.58-84,76.73-139.15,87.71-39.38,7.84-81.74,6.25-117.72-11.57S78.83,326,76.67,285.88c-.82-15.15,2.4-31.23,12.5-42.53,16.14-18.06,43.68-18.69,67.89-17.95s51.73.18,67.95-17.8c12.46-13.82,14.29-33.87,20.85-51.28,11.17-29.6,38.1-52.71,69.05-59.25A93.15,93.15,0,0,1,346.5,96c27,3.63,50.81,19.65,65.08,42.87Z" style="fill:#f5f5f5"></path></g><g id="freepik--Plants--inject-16"><path d="M88,217.18c3.31,4.16,8.91,6.63,8.3,9.93-.55,2.94-3.17,11.83-2.93,14.81.31,3.88,3.87,6.58,7.15,8.66s6.93,4.55,7.6,8.38c.58,3.31-1.32,6.7-.67,10,.81,4.18,5.21,6.5,9.14,8.13q10.07,4.19,20.45,7.55A20.74,20.74,0,0,0,130.71,265c-2.54-2.24-5.69-3.92-7.49-6.79-2.15-3.43-1.9-7.76-2.18-11.79s-1.61-8.6-5.31-10.23c-2.06-.91-4.64-.79-6.25-2.35-2-1.93-1.4-5.2-2-7.91-.84-3.78-4.25-6.57-7.94-7.78s-7.65-1.1-11.53-1" style="fill:#DFF3ED"></path><path d="M147.45,293.92c-4.6-7.46-2.68-16.44,1.16-24.32s10.27-14.17,16.74-20.08,14.47-12.2,23.36-11.38c-5.1,2.57-7.19,8.69-8.27,14.31s-1.77,11.68-5.54,16c-1.89,2.16-4.58,3.93-5.17,6.74-.53,2.55.87,5.24.2,7.75-1.09,4.08-6.76,5.23-8.51,9.07-.85,1.86-.67,4.14-1.86,5.79-1.52,2.1-4.74,2.28-7,1.1s-3.9-3.35-5.42-5.44" style="fill:#DFF3ED"></path><path d="M149.16,315a31.16,31.16,0,0,1-2.32-4.15c-1.34-2.76-3-6.88-4.88-12-1-2.57-2-5.38-3.15-8.37a87.75,87.75,0,0,0-4.16-9.35,22.25,22.25,0,0,0-3.07-4.52,25.08,25.08,0,0,0-4.49-3.55c-1.64-1.07-3.37-2.08-5-3.29a17.89,17.89,0,0,1-4.41-4.4,11.71,11.71,0,0,1-1.89-5.95c-.15-2.05,0-4.06-.19-6a11.5,11.5,0,0,0-1.63-5.37A6.08,6.08,0,0,0,112,246.2a12,12,0,0,0-2.46-1.09c-1.67-.59-3.48-1.08-4.79-2.34a6.42,6.42,0,0,1-1.69-4.73c0-1.63.18-3.17.13-4.64a12.2,12.2,0,0,0-.88-4.11,17.38,17.38,0,0,0-4.16-5.95,32.43,32.43,0,0,0-4.34-3.44c-1.26-.85-2.27-1.48-2.95-1.91l-.77-.49a1.52,1.52,0,0,1-.26-.19l.28.14.8.45c.7.4,1.73,1,3,1.83a31.63,31.63,0,0,1,4.43,3.4,17.5,17.5,0,0,1,4.3,6,12.34,12.34,0,0,1,.94,4.23c.06,1.52-.13,3.07-.1,4.66a6,6,0,0,0,1.58,4.4c1.19,1.15,2.93,1.63,4.63,2.21a13.14,13.14,0,0,1,2.56,1.13,6.64,6.64,0,0,1,2.09,2,11.85,11.85,0,0,1,1.71,5.59c.17,2,.05,4,.21,6a11.18,11.18,0,0,0,1.8,5.7,17.4,17.4,0,0,0,4.29,4.27c1.62,1.19,3.35,2.2,5,3.29a25.29,25.29,0,0,1,4.57,3.62,23.18,23.18,0,0,1,3.14,4.65,87.92,87.92,0,0,1,4.13,9.42c1.16,3,2.16,5.82,3.1,8.39,1.86,5.14,3.43,9.27,4.71,12.05.66,1.37,1.16,2.45,1.57,3.14.18.33.32.6.44.81A1.29,1.29,0,0,1,149.16,315Z" style="fill:#263238"></path><path d="M188.5,238a4.33,4.33,0,0,1-.79.43c-.52.26-1.29.66-2.24,1.23a33.69,33.69,0,0,0-7.29,5.88,32.85,32.85,0,0,0-3.92,5.13,35.11,35.11,0,0,0-1.72,3.17c-.53,1.12-1,2.3-1.64,3.48a17.08,17.08,0,0,1-2.21,3.45,11,11,0,0,1-3.4,2.6,33.26,33.26,0,0,0-3.78,2.12,6.34,6.34,0,0,0-2.46,3.46c-.84,2.85-.39,5.94-1.36,8.75s-2.79,5-4,7.25a18.42,18.42,0,0,0-2.14,7,26.89,26.89,0,0,0,.13,6.45,56,56,0,0,0,2.23,9.13c.33,1,.59,1.84.78,2.44a4.76,4.76,0,0,1,.24.86.88.88,0,0,1-.1-.2q-.09-.26-.24-.63c-.21-.54-.51-1.36-.87-2.41a51.14,51.14,0,0,1-2.4-9.14,26.91,26.91,0,0,1-.2-6.54,18.65,18.65,0,0,1,2.15-7.2c1.26-2.34,3-4.51,4-7.18s.47-5.72,1.34-8.74a6.91,6.91,0,0,1,2.65-3.73,34.46,34.46,0,0,1,3.85-2.15,10.6,10.6,0,0,0,3.26-2.48,16.72,16.72,0,0,0,2.16-3.34c.59-1.16,1.11-2.33,1.66-3.46a34.77,34.77,0,0,1,1.76-3.2,32.89,32.89,0,0,1,4-5.16,31.81,31.81,0,0,1,7.45-5.79,24.06,24.06,0,0,1,2.3-1.15A6.71,6.71,0,0,1,188.5,238Z" style="fill:#263238"></path></g><g id="freepik--Character--inject-16"><path d="M300.4,273.19c9.38-.81,18.91-1.62,28.24-.5s18.57,4.47,23.63,10.31c4.25,4.91,5.08,11,5.8,16.75l6.18,49.65c.53,4.21,1,8.58-.86,12.58-4.12,8.75-19.29,12.88-31.38,10.15a37.26,37.26,0,0,1-25.15-19.46c-4.31-8.7-4.86-18.12-5.36-27.36L298.75,275l1.22-.8" style="fill:#263238"></path><polygon points="39.73 358.98 42.64 369.21 320.52 449.91 416.1 386.83 416.1 378.23 39.73 358.98" style="fill:#263238"></polygon><polygon points="139.41 312.68 416.1 378.23 320.52 440.6 39.73 358.98 139.41 312.68" style="fill:#455a64"></polygon><polygon points="285.39 368.96 232.47 394.54 135.45 368.08 183.08 342.06 285.39 368.96" style="fill:#263238"></polygon><polygon points="227.04 367.88 241.09 372.52 254.1 365.45 232.45 358.5 219.81 365.06 227.04 367.88" style="fill:#455a64"></polygon><path d="M123.1,296.64c.44,1.76,12.35,71.44,12.35,71.44l97,26.46L219.68,320Z" style="fill:#263238"></path><path d="M225.41,353.39c.14,0,1.84,9.17,3.79,20.53s3.42,20.6,3.27,20.62-1.83-9.17-3.78-20.53S225.27,353.41,225.41,353.39Z" style="fill:#455a64"></path><path d="M180.39,343.75c1.18,3.05,0,6.34-2.62,7.36s-5.7-.63-6.88-3.68,0-6.34,2.61-7.36S179.21,340.7,180.39,343.75Z" style="fill:#455a64"></path><path d="M219.68,320c4.32-5,6.83-39,6.83-39l32,3.6h0s-4.61,49.81-19.23,55.79l-14.63,6" style="fill:#ffbe9d"></path><path d="M324.81,330.67s14.16,15.87,13.31,29.09l-25.13-6,9.69-23.13" style="fill:#DFF3ED"></path><path d="M345,286.26c-.62-27.79-11.6-41.39-12.05-43.15a43.31,43.31,0,0,0-32-14.06l-29.83.48A69.3,69.3,0,0,0,249.06,236l-.74.21v.15c-8.44,4.41-17.5,11.27-18.93,22.84l-3.61,22.53,20.74,1h0c-2.11,7.54-4.44,8.51-2,15.95l7.9,13.11c0,10.45-.7,4.12-3.91,26.79l80.12,19c4.65-4.58,1.11-17-11.29-39.57-1.85-3.38,7.76-37.38,7.76-37.38L343,286.84" style="fill:#DFF3ED"></path><path d="M251.2,274.11a9.31,9.31,0,0,1-.72,1.42c-.5.9-1.22,2.18-2.07,3.79-1.64,3.21-3.93,7.86-4.15,13.41a16.86,16.86,0,0,0,1.37,7.55,24.51,24.51,0,0,0,3.39,5.36c1.15,1.41,2.15,2.49,2.83,3.26a8.83,8.83,0,0,1,1,1.21A10.23,10.23,0,0,1,251.7,309c-.72-.72-1.77-1.77-3-3.17a23.19,23.19,0,0,1-3.54-5.39,16.87,16.87,0,0,1-1.46-7.77,24.74,24.74,0,0,1,1.61-7.73,42.36,42.36,0,0,1,2.74-5.83c.89-1.6,1.67-2.86,2.21-3.72A9.94,9.94,0,0,1,251.2,274.11Z" style="fill:#263238"></path><path d="M342.09,262.22l-.23.2c-.16.12-.39.32-.71.55a12.46,12.46,0,0,1-3.11,1.51c-2.85,1-7.41,1.15-12.57-.41-2.58-.76-5.31-1.88-8.24-3a35.08,35.08,0,0,0-9.64-2.49,31,31,0,0,0-10.9,1.1,112.77,112.77,0,0,0-11.25,3.86,88,88,0,0,1-11.36,3.72,30,30,0,0,1-11.11.64,40.68,40.68,0,0,1-9.61-3c-2.9-1.24-5.57-2.44-8.11-3.27a27.33,27.33,0,0,0-7-1.37,17.38,17.38,0,0,0-5.36.54,14.23,14.23,0,0,0-4.16,2s.07-.07.23-.2.4-.31.73-.53a12.93,12.93,0,0,1,3.14-1.43,17,17,0,0,1,5.44-.64,26.84,26.84,0,0,1,7.12,1.31c2.57.81,5.26,2,8.16,3.22a41.08,41.08,0,0,0,9.52,3,29.57,29.57,0,0,0,10.93-.67,87,87,0,0,0,11.29-3.71,109.37,109.37,0,0,1,11.3-3.86,31.4,31.4,0,0,1,11.08-1.09,35.26,35.26,0,0,1,9.74,2.56c2.94,1.14,5.64,2.27,8.19,3.05,5.1,1.58,9.58,1.47,12.41.57A14.2,14.2,0,0,0,342.09,262.22Z" style="fill:#263238"></path><path d="M317.49,311.9a3,3,0,0,1-.64.25l-1.88.6a50.33,50.33,0,0,1-7.08,1.69,26,26,0,0,1-5,.3,24,24,0,0,1-5.71-1c-3.93-1.14-7.91-3.23-12.26-4.89a45.83,45.83,0,0,0-6.52-1.87,49.29,49.29,0,0,0-6.27-.79,45.38,45.38,0,0,0-10.67.73,43.59,43.59,0,0,0-7,1.93c-.81.26-1.42.55-1.84.7a3,3,0,0,1-.66.22,6.46,6.46,0,0,1,.62-.32c.41-.18,1-.49,1.81-.79a39.06,39.06,0,0,1,7-2.1,44,44,0,0,1,10.76-.85,48.57,48.57,0,0,1,6.35.77,45.27,45.27,0,0,1,6.6,1.89c4.4,1.67,8.35,3.76,12.22,4.91a24.21,24.21,0,0,0,5.59,1,26.45,26.45,0,0,0,5-.23,57.9,57.9,0,0,0,7.07-1.52l1.91-.51A2.91,2.91,0,0,1,317.49,311.9Z" style="fill:#263238"></path><path d="M281.16,341.24a5.09,5.09,0,0,1-1.33-.14,30.16,30.16,0,0,1-3.56-.84c-3-.82-6.9-2.52-11.38-3.84a23.16,23.16,0,0,0-11.75-.64,17.28,17.28,0,0,0-4.51,1.94s.07-.1.25-.24a6.29,6.29,0,0,1,.81-.58,12,12,0,0,1,3.36-1.48c3-.89,7.44-.83,12,.5s8.41,3.08,11.34,4c1.46.47,2.66.8,3.49,1A7.35,7.35,0,0,1,281.16,341.24Z" style="fill:#263238"></path><g style="opacity:0.1"><path d="M318.14,280.12s-13.06,28.79-1.67,47.61l5.34-2-4.47-7.8a8.71,8.71,0,0,1-.15-3.62c.66-4.1,1.93-10.79,3.63-17.53Z"></path></g><path d="M296.34,176.2c6.44,5.62,9.31,14.46,9.52,23s-.54,18.23-.34,27.14l13.06-.26c8.63.26,18.41-.65,26.67-1.29a8,8,0,0,0,3.95-1c1.9-1.29,2.33-3.86,2.59-6.14.41-3.59.8-7.3-.23-10.76s-3.89-6.65-7.49-6.91c-1.27-.09-2.6.18-3.78-.3a4.77,4.77,0,0,1-2.55-3.49c-.33-1.46-.28-3-.5-4.46a12.47,12.47,0,0,0-8.17-9.75c-2.68-.91-5.91-1-7.67-3.24-2.14-2.69-.74-6.58-.62-10a12.48,12.48,0,0,0-20.21-10.2" style="fill:#263238"></path><path d="M286.24,245.41h0A15.29,15.29,0,0,1,271,230.77c-.28-6.58-.51-12.82-.51-12.82S257.9,216.78,257,204.37s-.52-41.06-.52-41.06h0a43.24,43.24,0,0,1,43.71,2.77l1.93,1.31-.57,62.86A15.3,15.3,0,0,1,286.24,245.41Z" style="fill:#ffbe9d"></path><path d="M262,186.85a1.81,1.81,0,1,0-2.56,0A1.8,1.8,0,0,0,262,186.85Z" style="fill:#263238"></path><path d="M257.54,183.05c.21.21,1.37-.81,3.08-.92s3,.69,3.18.46-.13-.48-.7-.86a4.25,4.25,0,0,0-5,.37C257.6,182.56,257.44,183,257.54,183.05Z" style="fill:#263238"></path><path d="M277.33,184.11a1.81,1.81,0,1,0,2.52.44A1.81,1.81,0,0,0,277.33,184.11Z" style="fill:#263238"></path><path d="M276.2,183.43c.21.21,1.37-.81,3.08-.92s3,.69,3.18.46-.13-.48-.69-.86a4.22,4.22,0,0,0-2.56-.63,4.18,4.18,0,0,0-2.44,1C276.26,182.94,276.1,183.34,276.2,183.43Z" style="fill:#263238"></path><path d="M270.13,196.72a8.38,8.38,0,0,0-2.8-.41c-.45,0-.81-.1-.85-.34a2.35,2.35,0,0,1,.24-1.3c.37-1.16.74-2.33,1.14-3.56,1.56-5.07,2.62-9.24,2.36-9.32s-1.73,4-3.3,9c-.36,1.24-.71,2.42-1.06,3.58a2.87,2.87,0,0,0-.13,1.88,1.19,1.19,0,0,0,.81.67,3.11,3.11,0,0,0,.77.05C269.05,197,270.13,196.86,270.13,196.72Z" style="fill:#263238"></path><path d="M275.81,198.27c1.72-1.17-4.75,2.91-8.24,3a4.72,4.72,0,0,0,5.69,1.53C276.9,201.17,275.81,198.27,275.81,198.27Z" style="fill:#fff"></path><path d="M270.42,217.77a28.87,28.87,0,0,0,15.9-5.6s-3.27,9.18-15.73,8.82Z" style="fill:#eb996e"></path><path d="M301.25,193c-4.49,3.62-9.93-5.75-12.34-11.62s-3.15-12.37-3.5-18.78c-.12-2.1-.14-4.4,1.08-6.05s1.73.28,3.27-1.24c2.65-2.62.13-2.63,2.78-2.31,4.53.55,14.4,8.4,15.23,13.15s.16,9.63-.51,14.41c-.31,2.18-.62,4.37-.92,6.55a10.71,10.71,0,0,1-1.3,4.42c-.83,1.28-2.46,2.11-3.79,1.47" style="fill:#263238"></path><path d="M301.41,182.73a1.88,1.88,0,0,1,1.79-1.88c2.32-.06,6.11.86,6.47,7.26.51,9.13-8.28,6.85-8.31,6.59S301.39,186.29,301.41,182.73Z" style="fill:#ffbe9d"></path><path d="M303.37,191.11s.17.1.44.21a1.54,1.54,0,0,0,1.19,0c.95-.41,1.68-2,1.63-3.63a5.24,5.24,0,0,0-.57-2.26,1.86,1.86,0,0,0-1.27-1.15.79.79,0,0,0-.91.49c-.11.26,0,.44-.09.46s-.21-.15-.15-.53a1,1,0,0,1,.32-.59,1.2,1.2,0,0,1,.87-.28,2.23,2.23,0,0,1,1.74,1.32,5.37,5.37,0,0,1,.7,2.52c0,1.84-.81,3.62-2.11,4.07a1.66,1.66,0,0,1-1.46-.16C303.4,191.33,303.34,191.13,303.37,191.11Z" style="fill:#eb996e"></path><path d="M286.44,156.61a29.27,29.27,0,0,1-17.39,18.58,2.29,2.29,0,0,1-2.16,0c-.76-.6-.47-1.86.17-2.59s1.53-1.24,2-2.09l-4.65,2.63a7.44,7.44,0,0,1-2.4,1,2.55,2.55,0,0,1-2.39-.75,1.55,1.55,0,0,1,.32-2.27c-1.05,1.72-3.74,1.88-5.29.59a5.47,5.47,0,0,1-1.45-5.54,11.23,11.23,0,0,1,3.26-5c6.43-6.26,15.78-8.53,24.73-9.14a28.64,28.64,0,0,1,8.27.36c2.7.6,6.88.38,11.75,5.71" style="fill:#263238"></path><path d="M264.46,178.38c-.1.29-1.73-.08-3.74,0s-3.64.45-3.75.18,1.49-1.18,3.72-1.22S264.57,178.13,264.46,178.38Z" style="fill:#263238"></path><path d="M282.73,178.59c-.1.28-1.68-.07-3.62-.16s-3.54.08-3.62-.21,1.55-.94,3.67-.83S282.83,178.33,282.73,178.59Z" style="fill:#263238"></path><path d="M306.64,173.23c-.15-.09.34-1,.69-2.56a11,11,0,0,0-.33-6.09,11.13,11.13,0,0,0-3.62-4.91c-1.27-1-2.23-1.37-2.17-1.53s1.11,0,2.59.93a10.07,10.07,0,0,1,4.24,11.8C307.47,172.5,306.73,173.3,306.64,173.23Z" style="fill:#455a64"></path><path d="M318.14,280.12l7.12,44.33-57.33,21.41L277.21,365l60.33-18.85a20.47,20.47,0,0,0,14-23.16l-7.71-42.85Z" style="fill:#ffbe9d"></path><path d="M268.28,345.73s-10.67-3.4-15.79-4.71c-2-.51-10.53,4-16.43,7.74,0,0-8.12,4.82-7.46,6.3.72,1.64,3.72,1.3,8.49-.94,0,0-1.67,4.83,1.61,4.73,0,0-1.63,5.23,1.44,5.77s3.79-6.13,6.49-6.49,8.3-.72,8.3-.72,4.65,7.71,8.26,8.25,14.36-.68,14.36-.68Z" style="fill:#ffbe9d"></path><path d="M246.68,347.85a47.16,47.16,0,0,1-8.38,5.28,24.54,24.54,0,0,1,4-2.86A24.23,24.23,0,0,1,246.68,347.85Z" style="fill:#eb996e"></path><path d="M247.6,350.82a30.25,30.25,0,0,1-4.92,2.56,29.83,29.83,0,0,1-5.13,2.08,29,29,0,0,1,4.91-2.56A29.74,29.74,0,0,1,247.6,350.82Z" style="fill:#eb996e"></path><path d="M245.94,358a12,12,0,0,1-3.42.73A12.17,12.17,0,0,1,239,359a11.75,11.75,0,0,1,3.42-.74A11.94,11.94,0,0,1,245.94,358Z" style="fill:#eb996e"></path></g><g id="freepik--Document--inject-16"><rect x="128.83" y="103.97" width="85.79" height="109.39" style="fill:#fafafa"></rect><path d="M214.62,213.36s0-.18,0-.53,0-.87,0-1.53c0-1.36,0-3.36,0-6,0-5.2,0-12.78-.06-22.4,0-19.22-.07-46.53-.11-79l.23.23-85.78,0h0l.26-.26c0,40.55,0,78.2-.05,109.39l-.21-.22,62.24.12,17.38.05,4.58,0c1,0,1.59,0,1.59,0l-1.54,0-4.54,0-17.33.05-62.38.11h-.22v-.21c0-31.19,0-68.84,0-109.39v-.26h.27l85.78,0h.23V104c0,32.51-.09,59.88-.11,79.13,0,9.6-.05,17.17-.07,22.35,0,2.57,0,4.55,0,5.9,0,.66,0,1.16,0,1.51S214.62,213.36,214.62,213.36Z" style="fill:#263238"></path><path d="M203.56,122.11c0,.29-7.24.52-16.16.52s-16.17-.23-16.17-.52,7.24-.52,16.17-.52S203.56,121.82,203.56,122.11Z" style="fill:#263238"></path><path d="M203.56,128.43c0,.29-7.24.53-16.16.53s-16.17-.24-16.17-.53,7.24-.52,16.17-.52S203.56,128.15,203.56,128.43Z" style="fill:#263238"></path><path d="M203.56,135.7c0,.29-7.24.52-16.16.52s-16.17-.23-16.17-.52,7.24-.52,16.17-.52S203.56,135.41,203.56,135.7Z" style="fill:#263238"></path><path d="M165.73,150.94c0,.29-6.39.52-14.28.52s-14.29-.23-14.29-.52,6.4-.52,14.29-.52S165.73,150.65,165.73,150.94Z" style="fill:#263238"></path><path d="M165.73,157.27c0,.28-6.39.52-14.28.52s-14.29-.24-14.29-.52,6.4-.52,14.29-.52S165.73,157,165.73,157.27Z" style="fill:#263238"></path><path d="M165.73,164.53c0,.29-6.39.52-14.28.52s-14.29-.23-14.29-.52,6.4-.52,14.29-.52S165.73,164.24,165.73,164.53Z" style="fill:#263238"></path><path d="M165.73,172.13c0,.29-6.39.52-14.28.52s-14.29-.23-14.29-.52,6.4-.52,14.29-.52S165.73,171.84,165.73,172.13Z" style="fill:#263238"></path><path d="M165.73,178.46c0,.28-6.39.52-14.28.52s-14.29-.24-14.29-.52,6.4-.52,14.29-.52S165.73,178.17,165.73,178.46Z" style="fill:#263238"></path><path d="M165.73,185.72c0,.29-6.39.52-14.28.52s-14.29-.23-14.29-.52,6.4-.52,14.29-.52S165.73,185.43,165.73,185.72Z" style="fill:#263238"></path><path d="M165.73,193.32c0,.29-6.39.52-14.28.52s-14.29-.23-14.29-.52,6.4-.52,14.29-.52S165.73,193,165.73,193.32Z" style="fill:#263238"></path><path d="M165.73,199.65c0,.28-6.39.52-14.28.52s-14.29-.24-14.29-.52,6.4-.52,14.29-.52S165.73,199.36,165.73,199.65Z" style="fill:#263238"></path><path d="M205.2,199.65c0,.28-7,.52-15.56.52s-15.56-.24-15.56-.52,7-.52,15.56-.52S205.2,199.36,205.2,199.65Z" style="fill:#263238"></path><path d="M204.58,178.46c0,.28-7,.52-15.56.52s-15.56-.24-15.56-.52,7-.52,15.56-.52S204.58,178.17,204.58,178.46Z" style="fill:#263238"></path><path d="M204.58,184.78c0,.29-7,.52-15.56.52s-15.56-.23-15.56-.52,7-.52,15.56-.52S204.58,184.49,204.58,184.78Z" style="fill:#263238"></path><path d="M204.58,192.05c0,.28-7,.52-15.56.52s-15.56-.24-15.56-.52,7-.52,15.56-.52S204.58,191.76,204.58,192.05Z" style="fill:#263238"></path><rect x="175.07" y="146.77" width="27.42" height="20.62" style="fill:#DFF3ED"></rect><g style="opacity:0.30000000000000004"><polygon points="175.07 161.12 182.12 156.43 189.64 161.12 197.72 155.16 202.5 158.14 202.5 167.39 175.07 167.39 175.07 161.12"></polygon></g><g style="opacity:0.30000000000000004"><path d="M192.33,152.69a2.47,2.47,0,1,1-2.47-2.46A2.48,2.48,0,0,1,192.33,152.69Z"></path></g><path d="M157.81,121.28l.19,4.2h-.5a5.49,5.49,0,0,0-.39-1.59,2.68,2.68,0,0,0-1.09-1.12,3.72,3.72,0,0,0-1.79-.37h-2.52v13.67a3.63,3.63,0,0,0,.36,2.06,2,2,0,0,0,1.54.55h.62v.49h-7.59v-.49h.64a1.85,1.85,0,0,0,1.61-.68,4.07,4.07,0,0,0,.29-1.93V122.4H147a5.7,5.7,0,0,0-1.78.19,2.45,2.45,0,0,0-1.18,1,4,4,0,0,0-.58,1.93H143l.21-4.2Z" style="fill:#263238"></path></g></svg>